{"glyphs":{":":{"x_min":0,"x_max":227,"ha":227,"o":""},"$":{"x_min":0,"x_max":577,"ha":577,"o":"m 282 -7 q 234 -7 192 4 q 150 16 113 38 q 76 61 44 95 l 44 95 l 111 176 l 111 176 q 146 134 189 113 q 231 91 282 91 q 351 91 385 119 q 419 146 419 201 l 419 201 q 419 239 401 260 q 383 280 353 290 q 323 300 287 307 q 250 313 213 323 q 175 332 143 351 q 111 370 92 406 q 73 442 73 504 l 73 504 q 73 611 131 664 q 189 717 305 717 q 356 717 406 701 q 456 685 504 653 l 504 653 l 444 570 l 444 570 q 408 595 374 607 q 339 619 305 619 q 240 619 208 592 q 176 565 176 512 l 176 512 q 176 472 198 451 q 219 430 253 420 q 288 410 327 401 q 362 394 396 383 q 431 372 460 351 q 489 330 506 293 q 523 257 523 199 l 523 198 q 523 95 463 44 q 403 -7 282 -7 z m 241 -86 l 241 796 l 341 796 l 341 -86 z"},"?":{"x_min":0,"x_max":432,"ha":432,"o":"m 146 182 q 146 242 161 284 q 175 326 196 358 q 217 390 238 417 q 258 443 272 471 q 287 500 287 535 l 287 536 q 287 578 265 602 q 243 625 204 625 q 165 625 143 596 q 121 567 121 514 l 121 513 l 20 513 l 20 514 q 23 611 71 664 q 119 717 203 717 q 291 717 339 670 q 388 622 388 535 l 388 535 q 388 496 377 467 q 367 438 351 415 q 335 391 317 369 q 299 346 283 320 q 267 294 256 261 q 246 228 246 182 z m 144 0 l 144 104 l 249 104 l 249 0 z"},"<":{"x_min":0,"x_max":424,"ha":424,"o":"m 361 411 l 212 325 l 34 325 l 361 525 z m 361 240 l 361 125 l 34 325 l 212 325 z"},"'":{"x_min":0,"x_max":178,"ha":178,"o":"m 39 461 l 39 710 l 139 710 l 139 461 z"},"=":{"x_min":0,"x_max":459,"ha":459,"o":"m 68 357 l 68 452 l 396 452 l 396 357 z m 68 198 l 68 293 l 396 293 l 396 198 z"},"a":{"x_min":0,"x_max":532,"ha":532,"o":"m 364 0 l 364 321 q 364 371 338 399 q 311 426 262 426 q 232 426 203 417 q 174 408 151 391 l 79 441 q 107 476 155 495 q 202 514 259 514 q 354 514 407 465 q 459 416 459 326 l 459 0 z m 240 -7 q 147 -7 100 31 q 54 70 54 149 q 54 225 96 262 q 139 300 225 300 l 369 300 l 375 220 l 225 220 q 187 220 167 202 q 147 185 147 149 q 147 111 173 92 q 199 74 251 74 q 308 74 336 86 q 364 98 364 124 l 375 53 q 361 32 342 19 q 322 6 297 -1 q 272 -7 240 -7 z"},"L":{"x_min":0,"x_max":573,"ha":573,"o":"m 88 0 l 88 710 l 188 710 l 188 0 z m 138 0 l 138 95 l 544 95 l 544 0 z"},"3":{"x_min":0,"x_max":529,"ha":529,"o":"m 257 -7 q 197 -7 152 14 q 106 36 79 77 q 52 118 44 177 l 44 177 l 146 177 l 146 177 q 152 131 182 110 q 211 88 257 88 q 306 88 333 115 q 361 141 361 189 l 361 210 q 361 264 335 293 q 309 322 262 322 l 211 322 l 211 417 l 262 417 q 304 417 326 441 q 349 466 349 512 l 349 534 q 349 576 325 599 q 301 622 256 622 q 219 622 193 600 q 167 579 157 533 l 157 533 l 56 533 l 56 533 q 71 621 123 669 q 176 717 256 717 q 348 717 398 669 q 449 621 449 533 l 449 521 q 449 468 420 428 q 391 389 338 371 q 396 358 428 314 q 460 269 460 200 l 460 188 q 460 95 407 44 q 354 -7 257 -7 z"},";":{"x_min":0,"x_max":227,"ha":227,"o":""},"J":{"x_min":0,"x_max":505,"ha":505,"o":"m 196 -7 q 140 -7 92 16 q 44 39 15 80 l 96 139 q 110 115 136 102 q 162 88 196 88 q 254 88 286 125 q 318 161 318 226 l 318 710 l 417 710 l 417 226 q 417 115 360 54 q 302 -7 196 -7 z"},"V":{"x_min":0,"x_max":587,"ha":587,"o":"m 246 0 l 15 710 l 123 710 l 293 153 l 464 710 l 572 710 l 341 0 z"},"\"":{"x_min":0,"x_max":378,"ha":378,"o":""},"7":{"x_min":0,"x_max":503,"ha":503,"o":"m 440 710 l 440 621 l 256 0 l 150 0 l 334 615 l 153 615 l 153 513 l 54 513 l 54 710 z"},"S":{"x_min":0,"x_max":616,"ha":616,"o":"m 301 -7 q 250 -7 204 2 q 158 12 118 32 q 79 51 44 81 l 44 81 l 106 157 l 106 157 q 146 122 195 104 q 244 86 301 86 q 378 86 421 115 q 463 144 463 196 l 463 196 q 463 237 442 258 q 420 280 385 290 q 351 301 309 308 q 269 314 228 324 q 188 333 153 353 q 119 373 98 410 q 78 447 78 509 l 78 509 q 78 608 144 663 q 209 717 330 717 q 387 717 441 699 q 496 681 548 643 l 548 643 l 491 564 l 491 564 q 451 594 410 609 q 370 624 330 624 q 257 624 217 594 q 176 565 176 512 l 176 512 q 176 472 200 451 q 223 430 261 420 q 299 410 342 401 q 381 393 420 382 q 459 371 491 350 q 523 330 543 293 q 562 257 562 199 l 562 198 q 562 100 494 46 q 425 -7 301 -7 z"},"}":{"x_min":0,"x_max":360,"ha":360,"o":"m 292 269 q 205 269 157 313 q 109 357 109 438 l 109 649 q 109 688 86 709 q 62 730 20 730 l 20 825 q 110 825 159 776 q 209 727 209 638 l 209 438 q 209 403 231 383 q 252 364 292 364 z m 20 -192 l 20 -97 q 62 -97 86 -76 q 109 -55 109 -16 l 109 189 q 109 272 157 318 q 205 364 292 364 l 292 269 q 252 269 231 250 q 209 230 209 194 l 209 -6 q 209 -94 159 -143 q 110 -192 20 -192 z"},"Z":{"x_min":0,"x_max":544,"ha":544,"o":"m 490 710 l 490 624 l 181 95 l 500 95 l 500 0 l 59 0 l 59 86 l 370 615 l 67 615 l 67 710 z"},"x":{"x_min":0,"x_max":517,"ha":517,"o":"m 375 0 l 224 230 l 37 507 l 148 507 l 293 280 l 485 0 z m 29 0 l 221 280 l 269 188 l 140 0 z m 298 233 l 256 327 l 367 507 l 478 507 z"},")":{"x_min":0,"x_max":339,"ha":339,"o":"m 78 -153 l 10 -91 q 83 -9 120 93 q 157 194 157 316 q 157 438 120 540 q 83 642 10 724 l 78 786 q 165 691 208 574 q 251 458 251 316 q 251 175 208 58 q 165 -59 78 -153 z"},"&":{"x_min":0,"x_max":652,"ha":652,"o":"m 511 0 l 240 282 q 190 335 161 395 q 133 456 133 521 q 133 614 183 665 q 232 716 323 716 q 414 716 463 667 q 513 618 513 528 l 513 518 l 413 518 l 413 528 q 413 571 390 595 q 366 619 323 619 q 280 619 256 593 q 232 567 232 521 q 232 478 253 432 q 274 386 312 345 l 637 0 z m 288 312 q 227 312 194 282 q 160 251 160 196 q 160 142 196 112 q 231 82 295 82 q 388 82 438 155 q 489 228 489 360 l 584 360 q 584 243 547 161 q 511 79 441 36 q 372 -7 273 -7 q 173 -7 118 46 q 63 99 63 196 q 63 284 112 336 q 160 388 247 396 z"},"_":{"x_min":0,"x_max":436,"ha":436,"o":""},"v":{"x_min":0,"x_max":500,"ha":500,"o":"m 252 145 l 376 507 l 480 507 l 290 0 l 215 0 l 24 507 l 128 507 z"},"O":{"x_min":0,"x_max":646,"ha":646,"o":"m 323 -7 q 248 -7 191 25 q 135 58 104 117 q 73 176 73 254 l 73 456 q 73 535 104 594 q 135 652 191 685 q 248 717 323 717 q 398 717 454 685 q 510 652 541 594 q 572 535 572 456 l 572 254 q 572 176 541 117 q 510 58 454 25 q 398 -7 323 -7 z m 323 91 q 390 91 430 135 q 470 179 470 251 l 470 459 q 470 532 430 575 q 390 619 323 619 q 256 619 216 575 q 175 532 175 459 l 175 251 q 175 179 216 135 q 256 91 323 91 z"},"(":{"x_min":0,"x_max":339,"ha":339,"o":"m 261 -153 q 174 -59 131 58 q 88 175 88 316 q 88 458 131 574 q 174 691 261 786 l 330 724 q 256 642 219 540 q 183 438 183 316 q 183 194 219 93 q 256 -9 330 -91 z"},"C":{"x_min":0,"x_max":619,"ha":619,"o":"m 320 -7 q 246 -7 190 26 q 135 59 104 118 q 73 178 73 257 l 73 452 q 73 532 104 592 q 135 651 190 684 q 246 717 320 717 q 382 717 433 691 q 484 665 518 617 q 553 570 565 506 l 565 506 l 463 506 l 463 506 q 454 541 432 566 q 410 592 381 606 q 352 620 320 620 q 255 620 215 574 q 175 528 175 452 l 175 257 q 175 182 215 136 q 255 90 320 90 q 367 90 408 119 q 449 148 463 204 l 463 204 l 565 204 l 565 204 q 553 140 518 93 q 483 45 433 19 q 382 -7 320 -7 z"},"W":{"x_min":0,"x_max":847,"ha":847,"o":"m 244 153 l 389 710 l 458 710 l 603 153 l 729 710 l 832 710 l 659 0 l 557 0 l 426 496 l 290 0 l 188 0 l 15 710 l 118 710 z"},"A":{"x_min":0,"x_max":647,"ha":647,"o":"m 20 0 l 281 710 l 366 710 l 628 0 l 521 0 l 324 573 l 127 0 z m 140 156 l 140 250 l 514 250 l 514 156 z"},"f":{"x_min":0,"x_max":317,"ha":317,"o":"m 93 0 l 93 576 q 93 643 124 676 q 154 710 219 710 l 292 710 l 292 615 l 221 615 q 206 615 199 604 q 192 592 192 577 l 192 0 z m 39 422 l 39 507 l 292 507 l 292 422 z"},"Q":{"x_min":0,"x_max":657,"ha":657,"o":"m 586 -12 l 321 197 l 373 263 l 638 55 z m 323 -7 q 248 -7 191 25 q 135 58 104 117 q 73 176 73 254 l 73 456 q 73 535 104 594 q 135 652 191 685 q 248 717 323 717 q 398 717 454 685 q 510 652 541 594 q 572 535 572 456 l 572 254 q 572 176 541 117 q 510 58 454 25 q 398 -7 323 -7 z m 323 91 q 390 91 430 135 q 470 179 470 251 l 470 459 q 470 532 430 575 q 390 619 323 619 q 256 619 216 575 q 175 532 175 459 l 175 251 q 175 179 216 135 q 256 91 323 91 z"},"w":{"x_min":0,"x_max":773,"ha":773,"o":"m 190 0 l 34 507 l 138 507 l 228 145 l 354 507 l 424 507 l 550 145 l 640 507 l 744 507 l 588 0 l 513 0 l 389 350 l 266 0 z"},"-":{"x_min":0,"x_max":479,"ha":479,"o":"m 78 302 l 406 302 l 406 207 l 78 207 z"},"E":{"x_min":0,"x_max":598,"ha":598,"o":"m 88 0 l 88 710 l 188 710 l 188 0 z m 136 0 l 136 95 l 544 95 l 544 0 z m 136 305 l 136 400 l 490 400 l 490 305 z m 136 615 l 136 710 l 544 710 l 544 615 z"},"s":{"x_min":0,"x_max":519,"ha":519,"o":"m 257 -7 q 190 -7 135 12 q 80 32 37 72 l 37 72 l 96 145 l 96 145 q 137 113 177 98 q 218 82 257 82 q 316 82 346 100 q 375 119 375 155 q 375 184 356 195 q 336 207 304 211 q 272 214 235 217 q 205 219 174 224 q 144 229 119 243 q 94 256 79 283 q 64 309 64 354 q 64 434 114 474 q 163 514 261 514 q 320 514 372 498 q 423 482 468 449 l 468 449 l 408 376 l 408 376 q 370 400 333 413 q 296 425 261 425 q 210 425 185 407 q 159 390 159 355 q 159 333 177 323 q 194 312 223 310 q 252 307 285 304 q 317 302 349 297 q 382 292 409 277 q 437 263 453 234 q 470 205 470 155 q 470 74 417 33 q 364 -7 257 -7 z"},">":{"x_min":0,"x_max":429,"ha":429,"o":"m 68 411 l 68 525 l 395 325 l 217 325 z m 68 240 l 217 325 l 395 325 l 68 125 z"},"l":{"x_min":0,"x_max":290,"ha":290,"o":"m 178 710 l 178 131 q 178 113 186 103 q 194 92 208 92 l 255 92 l 255 -2 l 197 -2 q 141 -2 109 33 q 78 68 78 132 l 78 710 z"},"8":{"x_min":0,"x_max":562,"ha":562,"o":"m 281 -7 q 216 -7 168 17 q 120 42 93 86 q 66 130 66 190 l 66 202 q 66 255 93 302 q 119 349 164 373 q 126 393 104 432 q 81 471 81 514 l 81 531 q 81 615 135 666 q 190 717 281 717 q 372 717 427 666 q 482 615 482 531 l 482 514 q 482 470 459 431 q 436 393 397 373 q 442 349 469 302 q 497 255 497 202 l 497 190 q 497 130 470 86 q 443 42 395 17 q 346 -7 281 -7 z m 281 88 q 333 88 365 118 q 397 148 397 197 l 397 204 q 397 253 365 283 q 333 313 281 313 q 229 313 197 283 q 165 253 165 204 l 165 196 q 165 147 197 118 q 229 88 281 88 z m 281 409 q 327 409 354 438 q 382 467 382 514 l 382 521 q 382 566 354 594 q 327 622 281 622 q 236 622 208 594 q 180 566 180 521 l 180 513 q 180 466 208 438 q 236 409 281 409 z"},"\\":{"x_min":0,"x_max":378,"ha":378,"o":"m -42 794 l 54 794 l 383 -135 l 288 -135 z"},"e":{"x_min":0,"x_max":536,"ha":536,"o":"m 286 -7 q 180 -7 122 52 q 63 111 63 220 l 63 277 q 63 390 119 452 q 175 514 277 514 q 373 514 425 444 q 478 374 478 247 l 478 213 l 136 213 l 136 293 l 383 293 l 383 293 q 378 355 351 390 q 323 424 277 424 q 221 424 189 387 q 158 350 158 282 l 158 218 q 158 155 192 121 q 225 87 286 87 q 316 87 346 100 q 375 112 399 134 l 399 134 l 464 68 l 464 68 q 427 32 380 12 q 333 -7 286 -7 z"},"b":{"x_min":0,"x_max":544,"ha":544,"o":"m 305 -7 q 258 -7 223 15 q 188 38 171 80 l 178 186 q 178 153 189 130 q 201 107 223 95 q 246 83 277 83 q 327 83 354 113 q 381 143 381 197 l 381 307 q 381 363 354 394 q 327 424 277 424 q 246 424 223 413 q 201 401 189 378 q 178 356 178 324 l 167 421 q 190 466 228 490 q 265 514 310 514 q 392 514 436 460 q 480 406 480 308 l 480 197 q 480 100 435 46 q 389 -7 305 -7 z m 78 0 l 78 710 l 178 710 l 178 0 z"},"%":{"x_min":0,"x_max":687,"ha":687,"o":"m 104 0 l 490 710 l 577 710 l 191 0 z m 520 -7 q 463 -7 433 26 q 402 59 402 118 l 402 179 q 402 238 433 271 q 463 304 520 304 q 577 304 607 271 q 638 237 638 178 l 638 118 q 638 59 607 26 q 577 -7 520 -7 z m 520 70 q 557 70 557 113 l 557 185 q 557 226 520 226 q 483 226 483 184 l 483 113 q 483 70 520 70 z m 167 406 q 110 406 80 439 q 49 472 49 531 l 49 592 q 49 651 80 684 q 110 717 167 717 q 224 717 254 684 q 285 650 285 591 l 285 531 q 285 472 254 439 q 224 406 167 406 z m 167 483 q 204 483 204 526 l 204 598 q 204 639 167 639 q 130 639 130 597 l 130 526 q 130 483 167 483 z"},"m":{"x_min":0,"x_max":856,"ha":856,"o":"m 684 0 l 684 307 q 684 361 656 390 q 628 419 578 419 q 531 419 506 391 q 480 363 480 311 l 460 409 q 485 459 524 487 q 563 514 610 514 q 693 514 738 460 q 783 406 783 308 l 783 0 z m 78 0 l 78 507 l 178 507 l 178 0 z m 381 0 l 381 307 q 381 361 354 390 q 328 419 280 419 q 231 419 204 394 q 178 368 178 321 l 167 418 q 191 464 229 489 q 267 514 312 514 q 393 514 437 460 q 480 406 480 308 l 480 0 z"},"#":{"x_min":0,"x_max":624,"ha":624,"o":"m 315 0 l 437 710 l 516 710 l 395 0 z m 108 0 l 229 710 l 309 710 l 188 0 z m 73 538 l 590 538 l 590 455 l 73 455 z m 44 255 l 561 255 l 561 172 l 44 172 z"},",":{"x_min":0,"x_max":227,"ha":227,"o":"m 61 -162 l 61 104 l 166 104 l 166 -54 z"},"n":{"x_min":0,"x_max":559,"ha":559,"o":"m 78 0 l 78 507 l 178 507 l 178 0 z m 386 0 l 386 307 q 386 361 358 390 q 331 419 280 419 q 231 419 204 394 q 178 368 178 321 l 167 418 q 191 464 229 489 q 267 514 312 514 q 395 514 440 460 q 485 406 485 308 l 485 0 z"},"h":{"x_min":0,"x_max":559,"ha":559,"o":"m 78 0 l 78 710 l 178 710 l 178 0 z m 386 0 l 386 307 q 386 361 358 390 q 331 419 280 419 q 231 419 204 394 q 178 369 178 322 l 167 420 q 191 465 229 490 q 267 514 312 514 q 395 514 440 460 q 485 406 485 308 l 485 0 z"},"z":{"x_min":0,"x_max":495,"ha":495,"o":"m 428 507 l 428 423 l 184 92 l 441 92 l 441 0 l 63 0 l 63 86 l 313 415 l 70 415 l 70 507 z"},"B":{"x_min":0,"x_max":646,"ha":646,"o":"m 146 0 l 146 92 l 339 92 q 418 92 451 123 q 484 153 484 202 l 484 204 q 484 256 456 288 q 428 319 363 319 l 146 319 l 146 409 l 363 409 q 418 409 447 435 q 475 461 475 512 l 475 512 q 475 565 443 591 q 412 618 350 618 l 146 618 l 146 710 l 368 710 q 473 710 524 658 q 575 605 575 518 l 575 518 q 575 464 544 420 q 513 376 446 364 q 512 354 548 306 q 584 257 584 195 l 584 193 q 584 106 528 53 q 472 0 376 0 z m 88 0 l 88 710 l 187 710 l 187 0 z"},"K":{"x_min":0,"x_max":642,"ha":642,"o":"m 151 162 l 166 312 l 479 710 l 602 710 z m 88 0 l 88 710 l 188 710 l 188 0 z m 510 0 l 284 379 l 363 452 l 632 0 z"},"R":{"x_min":0,"x_max":652,"ha":652,"o":"m 131 300 l 131 395 l 374 395 q 417 395 443 425 q 470 456 470 505 l 470 505 q 470 555 443 585 q 417 616 374 616 l 131 616 l 131 710 l 370 710 q 432 710 478 685 q 524 659 550 613 q 576 567 576 505 l 576 505 q 576 444 550 398 q 524 352 478 326 q 432 300 370 300 z m 88 0 l 88 710 l 188 710 l 188 0 z m 487 0 l 325 322 l 424 345 l 605 0 z"},"T":{"x_min":0,"x_max":481,"ha":481,"o":"m 191 0 l 191 652 l 291 652 l 291 0 z m -10 615 l -10 710 l 491 710 l 491 615 z"},"P":{"x_min":0,"x_max":623,"ha":623,"o":"m 139 275 l 139 370 l 366 370 q 415 370 445 404 q 474 438 474 492 l 474 492 q 474 548 445 582 q 415 615 366 615 l 139 615 l 139 710 l 363 710 q 427 710 475 683 q 523 656 550 607 q 576 558 576 492 l 576 492 q 576 427 550 378 q 523 329 475 302 q 427 275 363 275 z m 88 0 l 88 710 l 188 710 l 188 0 z"},"|":{"x_min":0,"x_max":275,"ha":275,"o":"m 88 -84 l 88 794 l 188 794 l 188 -84 z"},"t":{"x_min":0,"x_max":326,"ha":326,"o":"m 210 -2 q 147 -2 119 32 q 91 67 91 132 l 91 654 l 191 654 l 191 131 q 191 113 198 103 q 206 92 220 92 l 268 92 l 268 -2 z m 39 417 l 39 507 l 268 507 l 268 417 z"},"M":{"x_min":0,"x_max":779,"ha":779,"o":"m 390 241 l 598 710 l 691 710 l 691 0 l 594 0 l 594 532 l 599 500 l 424 99 l 355 99 l 180 491 l 185 532 l 185 0 l 88 0 l 88 710 l 181 710 z"},"g":{"x_min":0,"x_max":539,"ha":539,"o":"m 248 -206 q 191 -206 146 -185 q 101 -164 76 -125 l 76 -125 l 143 -64 l 143 -64 q 163 -91 190 -105 q 217 -120 247 -120 q 304 -120 335 -89 q 366 -57 366 0 l 366 507 l 466 507 l 466 15 q 466 -90 409 -148 q 352 -206 248 -206 z m 239 -9 q 155 -9 109 45 q 63 99 63 197 l 63 309 q 63 408 108 462 q 153 516 234 516 q 279 516 316 492 q 354 469 376 426 l 366 323 q 366 355 354 378 q 343 401 321 413 q 298 425 267 425 q 217 425 190 394 q 163 363 163 308 l 163 197 q 163 142 190 112 q 217 82 267 82 q 298 82 321 94 q 343 107 354 130 q 366 154 366 187 l 373 80 q 359 45 326 18 q 292 -9 239 -9 z"},"j":{"x_min":0,"x_max":268,"ha":268,"o":"m 10 -206 l 10 -111 l 65 -111 q 80 -111 87 -101 q 94 -91 94 -73 l 94 507 l 194 507 l 194 -72 q 194 -136 163 -171 q 132 -206 75 -206 z m 93 610 l 93 710 l 195 710 l 195 610 z"},"i":{"x_min":0,"x_max":251,"ha":251,"o":"m 78 610 l 78 710 l 178 710 l 178 610 z m 78 0 l 78 507 l 178 507 l 178 0 z"},"y":{"x_min":0,"x_max":483,"ha":483,"o":"m 372 507 l 473 507 l 257 -119 q 239 -171 205 -191 q 171 -211 111 -211 l 91 -211 l 91 -116 l 111 -116 q 139 -116 156 -104 q 172 -93 184 -66 z m 227 -42 l 24 507 l 126 507 l 282 66 z"},"@":{"x_min":0,"x_max":890,"ha":890,"o":"m 422 -7 q 250 -7 250 211 l 250 295 q 250 514 445 514 q 640 514 640 295 l 640 137 l 568 109 q 559 51 522 22 q 486 -7 422 -7 z m 444 83 q 545 83 545 208 l 545 301 q 545 424 444 424 q 345 424 345 300 l 345 208 q 345 83 444 83 z m 447 -187 q 259 -187 166 -96 q 73 -5 73 177 q 73 210 73 243 q 73 277 74 310 q 75 507 168 605 q 261 703 447 703 q 629 703 723 605 q 817 506 817 310 q 817 272 817 233 q 817 193 817 157 q 817 70 781 31 q 745 -7 680 -7 q 609 -7 573 31 q 538 69 538 146 l 640 149 q 640 113 650 95 q 661 78 683 78 q 706 78 717 94 q 727 111 727 147 q 727 188 727 228 q 727 269 727 310 q 727 464 656 541 q 584 618 447 618 q 306 618 235 541 q 165 464 164 310 q 163 277 163 244 q 163 210 163 177 q 163 39 234 -30 q 304 -99 447 -99 l 592 -99 l 592 -187 z"},".":{"x_min":0,"x_max":227,"ha":227,"o":"m 61 0 l 61 104 l 166 104 l 166 0 z"},"p":{"x_min":0,"x_max":544,"ha":544,"o":"m 78 -206 l 78 507 l 178 507 l 178 -206 z m 305 -7 q 258 -7 223 15 q 188 38 171 80 l 178 186 q 178 153 189 130 q 201 107 223 95 q 246 83 277 83 q 327 83 354 113 q 381 143 381 197 l 381 307 q 381 363 354 394 q 327 424 277 424 q 246 424 223 413 q 201 401 189 378 q 178 356 178 324 l 167 421 q 190 466 228 490 q 265 514 310 514 q 392 514 436 460 q 480 406 480 308 l 480 197 q 480 100 435 46 q 389 -7 305 -7 z"},"X":{"x_min":0,"x_max":567,"ha":567,"o":"m 446 0 l 261 312 l 246 336 l 16 710 l 127 710 l 299 421 l 315 395 l 558 0 z m 10 0 l 257 406 l 435 710 l 547 710 l 312 326 l 122 0 z"},"*":{"x_min":0,"x_max":430,"ha":430,"o":"m 293 404 l 184 555 l 247 601 l 356 450 z m 137 404 l 74 450 l 184 601 l 247 555 z m 203 541 l 25 599 l 49 673 l 227 615 z m 176 578 l 176 765 l 254 765 l 254 578 z m 227 541 l 203 615 l 381 673 l 405 599 z"},"Y":{"x_min":0,"x_max":503,"ha":503,"o":"m 518 710 l 301 289 l 301 0 l 202 0 l 202 289 l -15 710 l 96 710 l 251 390 l 407 710 z"},"c":{"x_min":0,"x_max":498,"ha":498,"o":"m 283 -7 q 178 -7 121 50 q 63 108 63 213 l 63 296 q 63 400 121 457 q 178 514 283 514 q 342 514 390 493 q 438 472 466 433 l 466 433 l 395 369 l 395 369 q 374 393 345 406 q 316 419 284 419 q 227 419 195 387 q 163 355 163 296 l 163 213 q 163 153 195 120 q 227 87 284 87 q 316 87 345 102 q 374 116 395 142 l 395 142 l 466 72 l 466 72 q 438 34 390 13 q 342 -7 283 -7 z"},"!":{"x_min":0,"x_max":271,"ha":271,"o":"m 85 182 l 85 710 l 185 710 l 185 182 z m 83 0 l 83 104 l 188 104 l 188 0 z"},"/":{"x_min":0,"x_max":378,"ha":378,"o":"m 420 794 l 90 -135 l -5 -135 l 325 794 z"},"[":{"x_min":0,"x_max":294,"ha":294,"o":"m 93 -159 l 93 794 l 188 794 l 188 -159 z m 142 -159 l 142 -69 l 279 -69 l 279 -159 z m 142 704 l 142 794 l 279 794 l 279 704 z"},"6":{"x_min":0,"x_max":513,"ha":513,"o":"m 256 -7 q 162 -7 110 49 q 59 105 59 207 l 59 208 q 59 253 71 305 q 84 356 108 404 l 262 710 l 370 710 l 188 356 l 189 374 q 214 422 279 422 q 363 422 409 366 q 455 311 455 210 l 455 209 q 455 106 403 50 q 351 -7 256 -7 z m 256 88 q 304 88 330 118 q 355 147 355 201 l 355 202 q 355 261 328 294 q 301 326 251 326 q 207 326 183 293 q 158 261 158 201 l 158 201 q 158 146 184 117 q 209 88 256 88 z"},"r":{"x_min":0,"x_max":427,"ha":427,"o":"m 78 0 l 78 507 l 178 507 l 178 0 z m 357 387 q 344 403 324 411 q 304 419 277 419 q 230 419 204 393 q 178 367 178 321 l 167 418 q 190 463 228 489 q 265 514 310 514 q 345 514 373 504 q 401 494 422 475 z"},"2":{"x_min":0,"x_max":517,"ha":517,"o":"m 62 0 l 62 86 l 310 417 q 332 445 344 475 q 355 505 355 532 l 355 533 q 355 576 331 599 q 306 623 260 623 q 217 623 190 597 q 163 571 157 524 l 157 524 l 54 524 l 54 524 q 67 616 121 667 q 174 717 259 717 q 354 717 407 669 q 459 621 459 532 l 459 532 q 459 494 443 453 q 428 412 400 374 l 194 95 l 463 95 l 463 0 z"},"{":{"x_min":0,"x_max":360,"ha":360,"o":"m 68 269 l 68 364 q 108 364 130 383 q 151 403 151 438 l 151 638 q 151 727 201 776 q 250 825 341 825 l 341 730 q 298 730 274 709 q 251 688 251 649 l 251 438 q 251 357 203 313 q 156 269 68 269 z m 341 -192 q 250 -192 201 -143 q 151 -94 151 -6 l 151 194 q 151 230 130 250 q 108 269 68 269 l 68 364 q 156 364 203 318 q 251 272 251 189 l 251 -16 q 251 -55 274 -76 q 298 -97 341 -97 z"},"9":{"x_min":0,"x_max":513,"ha":513,"o":"m 146 0 l 325 353 l 324 335 q 312 312 287 302 q 262 292 229 292 q 152 292 105 348 q 59 405 59 500 l 59 500 q 59 604 111 660 q 163 717 257 717 q 351 717 403 660 q 455 603 455 498 l 455 497 q 455 454 442 403 q 429 353 405 304 l 253 0 z m 257 382 q 304 382 329 414 q 355 446 355 503 l 355 504 q 355 560 329 591 q 304 622 257 622 q 209 622 184 591 q 158 560 158 503 l 158 503 q 158 445 184 414 q 209 382 257 382 z"}," ":{"x_min":0,"x_max":269,"ha":269,"o":""},"I":{"x_min":0,"x_max":275,"ha":275,"o":"m 188 710 l 188 0 l 88 0 l 88 710 z"},"H":{"x_min":0,"x_max":679,"ha":679,"o":"m 491 0 l 491 710 l 591 710 l 591 0 z m 88 0 l 88 710 l 188 710 l 188 0 z m 150 302 l 150 397 l 544 397 l 544 302 z"},"4":{"x_min":0,"x_max":569,"ha":569,"o":"m 63 109 l 63 195 l 302 709 l 404 709 l 172 201 l 520 201 l 520 109 z m 370 0 l 370 417 l 467 417 l 467 0 z"},"~":{"x_min":0,"x_max":514,"ha":514,"o":"m 351 254 q 323 254 301 263 q 278 271 260 282 q 240 293 223 304 q 207 314 189 314 q 155 314 155 261 l 155 255 l 68 255 l 68 268 q 68 338 93 373 q 118 408 168 408 q 203 408 228 396 q 253 384 273 371 q 289 362 302 355 q 315 348 329 348 q 363 348 363 405 l 363 410 l 450 410 l 450 398 q 450 326 426 290 q 401 254 351 254 z"},"D":{"x_min":0,"x_max":656,"ha":656,"o":"m 155 0 l 155 95 l 316 95 q 395 95 438 135 q 481 176 481 250 l 481 459 q 481 534 438 574 q 395 615 316 615 l 155 615 l 155 710 l 313 710 q 442 710 512 643 q 583 577 583 456 l 583 254 q 583 174 551 117 q 520 60 459 30 q 398 0 312 0 z m 88 0 l 88 710 l 188 710 l 188 0 z"},"^":{"x_min":0,"x_max":503,"ha":503,"o":"m 335 488 l 254 612 l 254 761 l 449 488 z m 173 488 l 59 488 l 254 761 l 254 612 z"},"0":{"x_min":0,"x_max":552,"ha":552,"o":"m 276 -7 q 174 -7 124 47 q 73 102 73 194 l 73 517 q 73 611 125 665 q 176 719 276 719 q 376 719 427 665 q 479 612 479 517 l 479 194 q 479 100 427 46 q 376 -7 276 -7 z m 276 87 q 331 87 355 116 q 379 145 379 194 l 379 517 q 379 567 355 596 q 331 624 276 624 q 221 624 197 596 q 173 567 173 517 l 173 194 q 173 145 197 116 q 221 87 276 87 z"},"F":{"x_min":0,"x_max":559,"ha":559,"o":"m 88 0 l 88 710 l 188 710 l 188 0 z m 137 299 l 137 394 l 481 394 l 481 299 z m 137 615 l 137 710 l 535 710 l 535 615 z"},"`":{"x_min":0,"x_max":294,"ha":294,"o":""},"k":{"x_min":0,"x_max":529,"ha":529,"o":"m 115 74 l 121 192 l 382 507 l 499 507 z m 78 0 l 78 710 l 178 710 l 178 0 z m 416 0 l 239 292 l 303 359 l 524 0 z"},"u":{"x_min":0,"x_max":556,"ha":556,"o":"m 384 0 l 384 507 l 483 507 l 483 0 z m 178 507 l 178 199 q 178 146 205 116 q 232 87 281 87 q 331 87 357 114 q 384 140 384 187 l 391 81 q 377 47 343 20 q 309 -7 253 -7 q 169 -7 124 47 q 78 101 78 199 l 78 507 z"},"]":{"x_min":0,"x_max":294,"ha":294,"o":"m 106 -159 l 106 794 l 201 794 l 201 -159 z m 15 -159 l 15 -69 l 152 -69 l 152 -159 z m 15 704 l 15 794 l 152 794 l 152 704 z"},"U":{"x_min":0,"x_max":655,"ha":655,"o":"m 327 -7 q 208 -7 143 62 q 78 131 78 257 l 78 710 l 178 710 l 178 253 q 178 176 217 133 q 256 91 327 91 q 399 91 438 133 q 478 176 478 253 l 478 710 l 577 710 l 577 257 q 577 131 512 62 q 446 -7 327 -7 z"},"o":{"x_min":0,"x_max":545,"ha":545,"o":"m 272 -7 q 173 -7 118 51 q 63 108 63 213 l 63 296 q 63 400 118 457 q 173 514 272 514 q 372 514 427 457 q 481 400 481 296 l 481 212 q 481 107 427 50 q 372 -7 272 -7 z m 272 87 q 325 87 353 120 q 382 153 382 212 l 382 296 q 382 355 353 387 q 325 419 272 419 q 221 419 192 387 q 163 355 163 296 l 163 212 q 163 153 192 120 q 221 87 272 87 z"},"N":{"x_min":0,"x_max":700,"ha":700,"o":"m 88 0 l 88 710 l 178 710 l 525 161 l 514 148 l 514 710 l 612 710 l 612 0 l 521 0 l 175 541 l 187 554 l 187 0 z"},"+":{"x_min":0,"x_max":528,"ha":528,"o":"m 68 375 l 465 375 l 465 280 l 68 280 z m 316 525 l 316 129 l 217 129 l 217 525 z"},"G":{"x_min":0,"x_max":646,"ha":646,"o":"m 327 382 l 573 382 l 573 258 q 573 178 542 118 q 511 59 456 26 q 400 -7 325 -7 q 249 -7 192 24 q 136 55 104 111 q 73 167 73 243 l 73 452 q 73 532 104 592 q 135 651 191 684 q 247 717 322 717 q 384 717 435 691 q 486 665 521 617 q 555 570 567 506 l 567 506 l 459 506 l 459 506 q 446 562 406 591 q 367 620 322 620 q 255 620 215 574 q 175 528 175 452 l 175 243 q 175 173 216 132 q 257 90 325 90 q 391 90 431 134 q 471 178 471 256 l 471 287 l 327 287 z"},"q":{"x_min":0,"x_max":539,"ha":539,"o":"m 366 -206 l 366 507 l 466 507 l 466 -206 z m 239 -9 q 155 -9 109 45 q 63 99 63 197 l 63 309 q 63 408 108 462 q 153 516 234 516 q 279 516 316 492 q 354 469 376 426 l 366 323 q 366 355 354 378 q 343 401 321 413 q 298 425 267 425 q 217 425 190 394 q 163 363 163 308 l 163 197 q 163 142 190 112 q 217 82 267 82 q 298 82 321 94 q 343 107 354 130 q 366 154 366 187 l 373 80 q 359 45 326 18 q 292 -9 239 -9 z"},"d":{"x_min":0,"x_max":539,"ha":539,"o":"m 366 0 l 366 710 l 466 710 l 466 0 z m 239 -9 q 155 -9 109 45 q 63 99 63 197 l 63 309 q 63 408 108 462 q 153 516 234 516 q 279 516 316 492 q 354 469 376 426 l 366 323 q 366 355 354 378 q 343 401 321 413 q 298 425 267 425 q 217 425 190 394 q 163 363 163 308 l 163 197 q 163 142 190 112 q 217 82 267 82 q 298 82 321 94 q 343 107 354 130 q 366 154 366 187 l 373 80 q 359 45 326 18 q 292 -9 239 -9 z"},"1":{"x_min":0,"x_max":333,"ha":333,"o":"m 245 710 l 245 0 l 145 0 l 145 602 l 44 540 l 44 643 l 145 710 z"},"5":{"x_min":0,"x_max":544,"ha":544,"o":"m 271 -7 q 190 -7 138 39 q 86 86 73 171 l 73 171 l 173 171 l 173 171 q 178 132 204 110 q 230 88 271 88 q 319 88 345 120 q 372 152 372 210 l 372 270 q 372 328 345 360 q 319 392 271 392 q 246 392 222 377 q 198 362 180 336 l 89 336 l 89 710 l 451 710 l 451 615 l 188 615 l 188 456 q 207 471 230 479 q 253 487 277 487 q 370 487 420 430 q 471 374 471 270 l 471 210 q 471 106 419 50 q 367 -7 271 -7 z"}}}
